<?xml version="1.0" standalone="no"?><!DOCTYPE svg PUBLIC "-//W3C//DTD SVG 1.1//EN" "http://www.w3.org/Graphics/SVG/1.1/DTD/svg11.dtd"><svg t="1623226324052" class="icon" viewBox="0 0 1462 1024" version="1.1" xmlns="http://www.w3.org/2000/svg" p-id="1852" xmlns:xlink="http://www.w3.org/1999/xlink" width="22.84375" height="16"><defs><style type="text/css"></style></defs><path d="M1216.585143 282.697143c42.057143-37.814857 97.865143-57.782857 132.461714-41.325714 28.16 18.432 46.299429 48.64 49.298286 81.188571a32.768 32.768 0 0 1-13.385143 32.987429 34.889143 34.889143 0 0 1-35.401143 0.731428 115.126857 115.126857 0 0 0-20.845714-5.851428 58.148571 58.148571 0 0 0-48.420572 12.214857 430.08 430.08 0 0 1 68.534858 263.314285 370.322286 370.322286 0 0 1-25.892572 123.245715c-27.574857 70.070857-68.973714 112.274286-121.856 91.794285-5.12 5.485714-10.825143 10.166857-16.530286 13.677715a534.089143 534.089143 0 0 1-309.613714 117.906285h-36.571428c-172.032 0-281.234286-72.704-298.788572-145.846857a246.345143 246.345143 0 0 1-4.461714-24.722285c-15.140571-108.251429 3.072-240.347429 80.676571-378.733715a530.432 530.432 0 0 1 140.141715-160.548571c2.779429-1.974857 5.632-3.803429 8.484571-5.632a70.509714 70.509714 0 0 1 2.633143-39.350857c6.875429-13.238857 17.334857-24.283429 30.427428-32.036572 19.968-10.752 41.472-18.212571 63.853715-22.162285h0.438857a433.664 433.664 0 0 1 354.816 119.222857z m-373.540572-174.811429a26.331429 26.331429 0 0 1 9.947429 31.817143l-2.706286 5.12a26.916571 26.916571 0 0 1-31.451428 9.874286l-5.266286-2.706286A210.212571 210.212571 0 0 0 495.030857 264.777143a26.916571 26.916571 0 0 1-25.6 18.944l-5.412571-0.512a146.285714 146.285714 0 0 0-27.355429-2.779429 137.069714 137.069714 0 0 0-134.363428 123.611429l-0.731429 11.337143a65.901714 65.901714 0 0 0 0 11.117714 27.062857 27.062857 0 0 1-13.604571 25.965714l-5.924572 2.413715a218.697143 218.697143 0 0 0-163.181714 212.48 215.332571 215.332571 0 0 0 63.049143 154.697142 221.915429 221.915429 0 0 0 155.940571 64.219429h190.902857a26.331429 26.331429 0 1 1 0 52.662857h-190.902857a273.115429 273.115429 0 0 1-193.682286-79.433143 271.652571 271.652571 0 0 1 102.692572-449.316571A188.269714 188.269714 0 0 1 421.302857 227.181714l14.555429-0.512h14.628571a267.264 267.264 0 0 1 392.557714-118.784z m0 0z m-32.841142 187.977143a47.323429 47.323429 0 0 0-22.601143 10.459429A477.476571 477.476571 0 0 0 662.089143 449.828571c-71.314286 126.683429-88.502857 246.564571-75.629714 343.552 1.316571 9.801143 2.56 16.457143 3.291428 19.456 12.8 43.885714 110.811429 102.985143 247.222857 105.252572h36.059429a480.182857 480.182857 0 0 0 276.406857-105.179429l3.437714-2.706285c17.627429-12.946286 20.772571-23.186286 11.702857-52.809143a698.587429 698.587429 0 0 0-136.265142-244.589715 1624.429714 1624.429714 0 0 0-111.616-127.268571 764.635429 764.635429 0 0 0-103.424-88.502857 9.874286 9.874286 0 0 0-3.072-1.170286z m162.011428-73.654857a377.490286 377.490286 0 0 0-95.085714-2.121143 102.107429 102.107429 0 0 0-57.197714 20.187429l-0.219429 0.438857c-0.146286 0.292571-0.146286 0.731429 0 1.609143l1.901714 0.219428c8.850286 1.462857 17.334857 5.12 24.576 10.313143 39.936 28.16 77.092571 59.977143 111.030857 95.085714a1622.674286 1622.674286 0 0 1 113.664 131.291429 748.544 748.544 0 0 1 148.114286 264.338286c4.754286 15.725714 6.363429 32.182857 4.608 48.493714 10.825143 1.609143 21.723429-9.801143 32.475429-32.914286 2.413714-5.12 4.681143-10.678857 7.168-17.188571l5.339428-13.897143c12.8-34.377143 20.260571-70.363429 22.089143-107.081143a378.806857 378.806857 0 0 0-60.562286-232.448 134.802286 134.802286 0 0 0-12.214857-17.408 385.755429 385.755429 0 0 0-245.686857-148.918857z m0 0h0.073143z m351.232 63.853714c-27.574857 1.901714-53.540571 13.165714-73.728 31.817143l1.024 1.170286c22.601143-19.748571 52.955429-28.306286 82.578286-23.04a100.425143 100.425143 0 0 0-9.874286-9.947429z m21.430857 14.336l1.462857 2.048a5.412571 5.412571 0 0 0-3.876571 2.779429c-0.073143 0.146286-0.219429 0.073143-0.512-0.146286l1.682286-5.12 1.243428 0.438857z m3.876572 2.048z" fill="#444444" p-id="1853"></path></svg>