<?xml version="1.0" standalone="no"?><!DOCTYPE svg PUBLIC "-//W3C//DTD SVG 1.1//EN" "http://www.w3.org/Graphics/SVG/1.1/DTD/svg11.dtd"><svg t="1622988328495" class="icon" viewBox="0 0 1024 1024" version="1.1" xmlns="http://www.w3.org/2000/svg" p-id="2454" xmlns:xlink="http://www.w3.org/1999/xlink" width="16" height="16"><defs><style type="text/css"></style></defs><path d="M512 0C228.819753 0 0 228.819753 0 512S228.819753 1024 512 1024 1024 795.180247 1024 512 795.180247 0 512 0z m-115.041975 536.019753l-20.227161 78.380247 27.812346-24.019753s63.209877 72.059259 74.587654 89.758025c11.377778 17.698765 1.264198 80.908642 1.264198 80.908642l-107.45679-131.476544s-34.133333 117.57037-79.644445 145.382716c-29.076543 16.434568-63.209877 18.962963-93.550617 7.585186 39.190123-29.076543 73.323457-64.474074 99.871605-104.928395 22.755556-42.982716 37.925926-91.022222 45.511111-139.061729H211.120988s10.11358-46.775309 27.812345-48.039506c17.698765-1.264198 106.192593 0 106.192593 0L343.861728 341.333333l-50.567901 2.528395c-6.320988 21.491358-18.962963 41.718519-37.925926 55.624692-27.812346 20.22716-44.246914 12.641975-44.246913 12.641975s49.303704-137.797531 65.738271-164.345679 59.417284-29.076543 59.417284-29.076543l-26.548148 78.380247H480.395062c20.22716 0 21.491358 48.039506 21.491358 48.039506h-106.192593v142.854321s72.059259-2.528395 94.814815 0c22.755556 2.528395 22.755556 48.039506 22.755556 48.039506h-116.306173z m384.316049 185.837037h-106.192593l-75.851851 54.360494-16.434568-54.360494h-42.982716v-429.82716h242.725926l-1.264198 429.82716z" fill="#49C0FB" p-id="2455"></path><path d="M618.192593 721.85679l64.474074-48.039506h50.567901V340.069136H590.380247v333.748148h12.641975l15.170371 48.039506z" fill="#49C0FB" p-id="2456"></path></svg>