<?xml version="1.0" standalone="no"?><!DOCTYPE svg PUBLIC "-//W3C//DTD SVG 1.1//EN" "http://www.w3.org/Graphics/SVG/1.1/DTD/svg11.dtd"><svg t="1600679696155" class="icon" viewBox="0 0 1024 1024" version="1.1" xmlns="http://www.w3.org/2000/svg" p-id="50821" xmlns:xlink="http://www.w3.org/1999/xlink" width="200" height="200"><defs><style type="text/css"></style></defs><path d="M512 512m-512 0a512 512 0 1 0 1024 0 512 512 0 1 0-1024 0Z" fill="#FE6833" p-id="50822"></path><path d="M361.2 456.3c7.3 0 13.8 6.5 13.8 13.8v57.4c0 75.5 61.5 137 137 137s137-61.5 137-137v-52.3c0-7.3 6.5-13.8 13.8-13.8 6.7 0 13.7 4.9 14.3 13.8v52.3c0 83-64.2 154.8-146.1 163.4l-4.9 0.5v51.2h69.3c7.3 0 13.8 6.5 13.8 13.8s-6.5 13.8-13.8 13.8H429.2c-7.3 0-13.8-6.5-13.8-13.8s6.5-13.8 13.8-13.8h69.3v-51.2l-4.9-0.5c-82-8.6-146.1-80.3-146.1-163.4V470c0-7.3 6.4-13.7 13.7-13.7zM512 273.7c50.4 0 91.7 41 91.7 91.7v161c0 50.4-41 91.7-91.7 91.7-50.2 0-90.6-40.4-91.7-91.7v-161c0-50.5 41-91.7 91.7-91.7z" fill="#FFFFFF" p-id="50823"></path></svg>