<?xml version="1.0" standalone="no"?><!DOCTYPE svg PUBLIC "-//W3C//DTD SVG 1.1//EN" "http://www.w3.org/Graphics/SVG/1.1/DTD/svg11.dtd"><svg t="1600680013772" class="icon" viewBox="0 0 1024 1024" version="1.1" xmlns="http://www.w3.org/2000/svg" p-id="53806" xmlns:xlink="http://www.w3.org/1999/xlink" width="200" height="200"><defs><style type="text/css"></style></defs><path d="M512 0c282.5472 0 512 229.504 512 512 0 282.5472-229.4528 512-512 512S0 794.5472 0 512C0.1792 229.2992 229.2992 0.1792 512 0z m0 938.6752c235.52 0 426.6752-191.1552 426.6752-426.6752C938.6752 276.48 747.52 85.3248 512 85.3248 276.48 85.3248 85.3248 276.48 85.3248 512c0 235.52 191.1552 426.6752 426.6752 426.6752z m226.2272-582.0416a36.6336 36.6336 0 0 1 0 53.248L470.4512 667.392a40.2944 40.2944 0 0 1-55.3984 0l-129.28-124.288a36.6592 36.6592 0 0 1 0-53.2736 40.2944 40.2944 0 0 1 55.3984 0l101.5808 97.664 240.0768-230.8352a40.2944 40.2944 0 0 1 55.3984 0z" p-id="53807" fill="#e6e6e6"></path></svg>