<?xml version="1.0" standalone="no"?><!DOCTYPE svg PUBLIC "-//W3C//DTD SVG 1.1//EN" "http://www.w3.org/Graphics/SVG/1.1/DTD/svg11.dtd"><svg t="1600679834361" class="icon" viewBox="0 0 1024 1024" version="1.1" xmlns="http://www.w3.org/2000/svg" p-id="52157" xmlns:xlink="http://www.w3.org/1999/xlink" width="200" height="200"><defs><style type="text/css"></style></defs><path d="M375.467 307.2h546.133c40.96 0 68.267-27.307 68.267-68.267s-27.307-68.267-68.267-68.267h-546.133c-40.96 0-68.267 27.307-68.267 68.267s27.307 68.267 68.267 68.267zM921.6 443.733h-546.133c-40.96 0-68.267 27.307-68.267 68.267s27.307 68.267 68.267 68.267h546.133c40.96 0 68.267-27.307 68.267-68.267s-27.307-68.267-68.267-68.267zM921.6 716.8h-546.133c-40.96 0-68.267 27.307-68.267 68.267s27.307 68.267 68.267 68.267h546.133c40.96 0 68.267-27.307 68.267-68.267s-27.307-68.267-68.267-68.267zM102.4 170.667c-40.96 0-68.267 27.307-68.267 68.267s27.307 68.267 68.267 68.267 68.267-27.307 68.267-68.267c0-40.96-27.307-68.267-68.267-68.267zM102.4 443.733c-40.96 0-68.267 27.307-68.267 68.267s27.307 68.267 68.267 68.267 68.267-27.307 68.267-68.267c0-40.96-27.307-68.267-68.267-68.267zM102.4 716.8c-40.96 0-68.267 27.307-68.267 68.267s27.307 68.267 68.267 68.267 68.267-27.307 68.267-68.267c0-40.96-27.307-68.267-68.267-68.267z" p-id="52158" fill="#ffffff"></path></svg>