<?xml version="1.0" standalone="no"?><!DOCTYPE svg PUBLIC "-//W3C//DTD SVG 1.1//EN" "http://www.w3.org/Graphics/SVG/1.1/DTD/svg11.dtd"><svg t="1600679919859" class="icon" viewBox="0 0 1024 1024" version="1.1" xmlns="http://www.w3.org/2000/svg" p-id="52959" xmlns:xlink="http://www.w3.org/1999/xlink" width="200" height="200"><defs><style type="text/css"></style></defs><path d="M316.928 943.616c-3.584 8.192-13.312 12.288-21.504 8.192C129.536 870.912 25.6 700.928 25.6 518.144 25.6 246.272 246.272 32.768 512 32.768h37.376c12.288 0 19.456 13.312 13.312 23.552L442.368 258.048c-4.608 7.68-14.848 9.728-22.016 5.12l-33.28-22.016c-6.656-4.608-8.704-13.312-5.12-19.968L424.96 139.776c6.144-11.776-4.608-25.6-17.408-22.528-178.176 45.568-310.784 211.968-310.784 401.408 0 151.04 91.648 301.568 227.328 369.664 7.168 3.584 10.24 12.288 7.168 19.456l-14.336 35.84zM512 1004.032h-38.4c-11.776 0-19.456-12.8-13.312-23.04l121.856-215.552c4.096-7.68 13.824-10.24 21.504-5.632l37.888 23.04c7.168 4.608 9.728 13.824 5.632 20.992L593.92 896.512c-6.656 11.776 4.096 26.112 17.408 23.04 177.664-45.568 309.248-205.824 309.248-400.896 0-163.328-91.136-307.712-238.08-375.808-8.192-3.584-11.264-13.312-7.168-20.992l18.432-36.864c3.584-7.68 12.8-10.752 20.48-7.168 173.568 80.384 284.16 251.392 284.16 447.488 0 265.216-214.016 478.72-486.4 478.72z" fill="#e6e6e6" p-id="52960"></path></svg>