<?xml version="1.0" standalone="no"?><!DOCTYPE svg PUBLIC "-//W3C//DTD SVG 1.1//EN" "http://www.w3.org/Graphics/SVG/1.1/DTD/svg11.dtd"><svg t="1600656269673" class="icon" viewBox="0 0 1024 1024" version="1.1" xmlns="http://www.w3.org/2000/svg" p-id="2047" xmlns:xlink="http://www.w3.org/1999/xlink" width="200" height="200"><defs><style type="text/css"></style></defs><path d="M614.02845 0.703516a151.44788 151.44788 0 0 0-63.95603 18.163513l-52.635813 26.030104a484.083193 484.083193 0 0 0-214.380613 218.409843 146.267441 146.267441 0 0 0 86.404597 187.455125 116.719755 116.719755 0 0 0 40.739991 7.163075 182.85029 182.85029 0 0 0 159.250515-128.679532l81.288115-219.944788c25.582412-68.368996 8.570108-108.725251-36.838674-108.725252z m-24.495159 109.812504l-70.799326 191.868091a121.516457 121.516457 0 0 1-100.922616 85.70108 60.502405 60.502405 0 0 1-21.681094-3.837361 86.916245 86.916245 0 0 1-51.164824-111.347449A387.573543 387.573543 0 0 1 511.698802 104.759978l45.792517-22.704391a91.776903 91.776903 0 0 1 37.798014-11.703954 4.157142 4.157142 0 0 1 1.534945 0 85.445256 85.445256 0 0 1-7.227031 40.164387z m415.714196 440.46518l-26.030104-52.635812a485.042533 485.042533 0 0 0-218.409843-214.380614 144.860408 144.860408 0 0 0-50.141528-9.081756A146.267441 146.267441 0 0 0 573.416371 370.369371a168.20436 168.20436 0 0 0 121.516457 200.246331l220.136656 81.096246a168.588096 168.588096 0 0 0 56.153395 11.703954c52.443945 0 68.688776-43.042408 34.216476-112.434702z m-53.978889 44.769222a33.896696 33.896696 0 0 1-5.244395 0.31978 100.922616 100.922616 0 0 1-34.280432-7.546812L722.753702 518.747361a106.614702 106.614702 0 0 1-80.648555-120.685029 86.148773 86.148773 0 0 1 80.648555-55.769658 83.462619 83.462619 0 0 1 29.163949 5.244394 382.009369 382.009369 0 0 1 165.582163 164.558866l22.38461 45.089001a84.485916 84.485916 0 0 1 11.576042 38.373618z m-622.292175-141.662607L108.775811 372.991568a169.675348 169.675348 0 0 0-56.153394-11.703953c-52.635813 0-68.880645 42.85054-34.4723 112.434701l26.09406 52.635813a487.920555 487.920555 0 0 0 218.537755 214.380613 142.941728 142.941728 0 0 0 50.013616 8.953844 146.267441 146.267441 0 0 0 137.249641-95.486353 168.012491 168.012491 0 0 0-121.132722-200.24633zM383.786741 627.472613a87.172069 87.172069 0 0 1-81.479982 56.665042 84.933608 84.933608 0 0 1-29.547686-5.244394A387.957279 387.957279 0 0 1 104.874494 512.351758l-22.704391-45.792517a87.875586 87.875586 0 0 1-11.703954-39.013179 34.408344 34.408344 0 0 1 5.244395-0.31978 106.103054 106.103054 0 0 1 34.79208 7.674724l191.868091 70.351633a143.325464 143.325464 0 0 1 72.206358 56.984823A76.747236 76.747236 0 0 1 383.786741 627.472613z m269.958404-53.65911a113.330086 113.330086 0 0 0-40.739991-7.354943 182.786334 182.786334 0 0 0-159.250516 128.679533L372.594436 915.274749c-25.198676 68.368996-8.37824 108.725251 37.094498 108.725251a151.76766 151.76766 0 0 0 63.95603-18.163513l52.635813-26.030104a484.211105 484.211105 0 0 0 214.316657-218.409843 146.715133 146.715133 0 0 0-86.724377-187.455125z m25.198676 177.286116A389.364312 389.364312 0 0 1 511.698802 919.943539l-46.176254 23.088127a91.393167 91.393167 0 0 1-37.734058 11.703953 4.285054 4.285054 0 0 1-1.598901 0 86.276685 86.276685 0 0 1 7.482856-40.228343l70.991194-192.699519A121.516457 121.516457 0 0 1 605.906034 635.786897a59.990756 59.990756 0 0 1 21.681095 3.837361 87.044157 87.044157 0 0 1 51.612516 111.731185z" fill="#8a8a8a" p-id="2048"></path></svg>