<?xml version="1.0" standalone="no"?><!DOCTYPE svg PUBLIC "-//W3C//DTD SVG 1.1//EN" "http://www.w3.org/Graphics/SVG/1.1/DTD/svg11.dtd"><svg t="1600911903819" class="icon" viewBox="0 0 1024 1024" version="1.1" xmlns="http://www.w3.org/2000/svg" p-id="5596" xmlns:xlink="http://www.w3.org/1999/xlink" width="200" height="200"><defs><style type="text/css"></style></defs><path d="M527.496533 433.072356L759.239111 887.967289c14.279111 28.034844 0.386844 50.699378-31.061333 50.699378H295.822222c-31.4368 0-45.329067-22.653156-31.061333-50.688l231.7312-454.906311c8.578844-16.816356 22.436978-16.816356 31.004444 0z" fill="#2C83FF" p-id="5597"></path><path d="M512 460.8m-375.466667 0a375.466667 375.466667 0 1 0 750.933334 0 375.466667 375.466667 0 1 0-750.933334 0Z" fill="#52D2FF" p-id="5598"></path><path d="M512 836.266667a373.680356 373.680356 0 0 1-193.558756-53.703111l178.050845-349.4912c8.578844-16.816356 22.436978-16.816356 31.004444 0L705.547378 782.563556A373.691733 373.691733 0 0 1 512 836.266667z" fill="#0E6CFF" p-id="5599"></path><path d="M512 460.8m-227.555556 0a227.555556 227.555556 0 1 0 455.111112 0 227.555556 227.555556 0 1 0-455.111112 0Z" fill="#0A8FFF" p-id="5600"></path><path d="M512 688.355556a226.417778 226.417778 0 0 1-126.111289-38.183823l110.603378-217.099377c8.578844-16.816356 22.436978-16.816356 31.004444 0l110.603378 217.099377A226.417778 226.417778 0 0 1 512 688.355556z" fill="#024AFF" p-id="5601"></path></svg>