<?xml version="1.0" standalone="no"?><!DOCTYPE svg PUBLIC "-//W3C//DTD SVG 1.1//EN" "http://www.w3.org/Graphics/SVG/1.1/DTD/svg11.dtd"><svg t="1600656139126" class="icon" viewBox="0 0 1024 1024" version="1.1" xmlns="http://www.w3.org/2000/svg" p-id="1242" xmlns:xlink="http://www.w3.org/1999/xlink" width="200" height="200"><defs><style type="text/css"></style></defs><path d="M956.921255 847.51345l1.216711-8.650007c1.220804-8.895601 0.803295-2.761903 1.220804-13.713326L959.358771 690.827875l-0.730641-226.402403C950.686251 242.165412 753.905492 64.042595 511.667425 64.042595c-242.140853 0-438.823374 177.928389-446.911586 400.090211-0.146333 0.975211-0.778736 1.803066-0.778736 2.826372l0 358.190939c0.016373 6.993275 0 6.90527 0.676405 14.004969l1.75804 8.358365c11.596106 63.481823 70.839395 111.909789 142.750191 111.909789 78.635965 0 142.263098-57.879222 144.700613-129.98547 0.388856-1.413186 1.168616-2.777253 1.168616-4.287653L355.030969 690.827875c0-2.628874-0.352017-7.736195-0.352017-7.736195s-0.329505-9.604752-0.329505-14.673188c0-74.153884-64.99427-134.273123-145.187707-134.273123-17.052374 0-33.177634 3.215228-48.37987 8.233522l0-0.24457c-4.578272-20.656459-7.014764-42.044582-7.014764-63.96994 0-179.239244 160.241564-324.573283 357.899296-324.573283 189.035354 0 343.4277 133.055388 356.584348 301.480332 0.546446 33.111119-5.700839 82.289168-5.700839 86.771249l0 0.536212c-15.250332-5.019317-31.376615-8.233522-48.427966-8.233522-80.144318 0-145.187707 60.119239-145.187707 134.273123 0.243547 0 0 10.036587 0 22.409382l0 134.322242c0 74.15286 65.042365 134.273123 145.187707 134.273123C886.034788 959.423239 945.326173 910.995273 956.921255 847.51345zM209.113645 623.791086c27.039843 0 49.6457 19.148106 54.859445 44.627407l0 156.731624c-5.213745 25.480324-27.819602 44.578288-54.859445 44.578288-27.087938 0-49.6457-19.097964-54.860469-44.578288l-0.436952-156.731624C159.030993 642.939191 182.025707 623.791086 209.113645 623.791086zM758.094908 825.150116 758.094908 668.418492c5.213745-25.479301 29.036313-44.627407 56.07718-44.627407 27.088962 0 50.133817 19.148106 55.345516 44.627407l0 9.159614 0 147.573033c0 3.507894 0.436952 1.553379-3.458775 9.647731-8.280594 20.463054-28.354791 34.930557-51.886741 34.930557C787.131221 869.729427 763.308653 850.631464 758.094908 825.150116z" fill="#13227a" p-id="1243"></path></svg>