<?xml version="1.0" standalone="no"?><!DOCTYPE svg PUBLIC "-//W3C//DTD SVG 1.1//EN" "http://www.w3.org/Graphics/SVG/1.1/DTD/svg11.dtd"><svg t="1600656383054" class="icon" viewBox="0 0 2132 2048" preserveAspectRatio="xMidYMax meet" version="1.1" xmlns="http://www.w3.org/2000/svg" p-id="3542" xmlns:xlink="http://www.w3.org/1999/xlink" width="832.8125" height="800"><defs><style type="text/css"></style></defs><path d="M142.317764 571.116405m90.214412 0l20.047647 0q90.214412 0 90.214412 90.214412l0 254.339427q0 90.214412-90.214412 90.214412l-20.047647 0q-90.214412 0-90.214412-90.214412l0-254.339427q0-90.214412 90.214412-90.214412Z" fill="#362968" p-id="3543"></path><path d="M774.180955 571.116405m90.214412 0l20.047648 0q90.214412 0 90.214412 90.214412l0 254.339427q0 90.214412-90.214412 90.214412l-20.047648 0q-90.214412 0-90.214412-90.214412l0-254.339427q0-90.214412 90.214412-90.214412Z" fill="#362968" p-id="3544"></path><path d="M884.322246 1024h-20.047648a108.692063 108.692063 0 0 1-108.692062-108.692063V661.330817a108.692063 108.692063 0 0 1 108.692062-108.692062h20.047648a108.692063 108.692063 0 0 1 108.692062 108.692062v254.339427a108.692063 108.692063 0 0 1-108.692062 108.329756z m-20.047648-434.768251a72.461375 72.461375 0 0 0-72.461375 72.461375v254.339427a72.461375 72.461375 0 0 0 72.461375 72.461375h20.047648a72.461375 72.461375 0 0 0 72.461375-72.461375V661.330817a72.461375 72.461375 0 0 0-72.461375-72.461375zM256.323661 1024h-20.047647a108.692063 108.692063 0 0 1-108.692063-108.692063V661.330817a108.692063 108.692063 0 0 1 108.692063-108.692062h20.047647a108.692063 108.692063 0 0 1 108.692063 108.692062v254.339427a108.692063 108.692063 0 0 1-108.692063 108.329756z m-20.047647-434.768251a72.461375 72.461375 0 0 0-72.461375 72.461375v254.339427a72.461375 72.461375 0 0 0 72.461375 72.461375h20.047647a72.461375 72.461375 0 0 0 72.461375-72.461375V661.330817a72.461375 72.461375 0 0 0-72.461375-72.461375z" fill="#362968" p-id="3545"></path><path d="M139.177771 782.82439a505.055785 505.055785 0 1 1 850.817313-10.869207l-31.037622-19.081495a468.825097 468.825097 0 1 0-789.70822 9.903055z" fill="#362968" p-id="3546"></path><path d="M208.619922 1024h-20.047647a108.692063 108.692063 0 0 1-108.692063-108.692063V661.330817a108.692063 108.692063 0 0 1 108.692063-108.692062h20.047647a108.692063 108.692063 0 0 1 108.692063 108.692062v254.339427a108.692063 108.692063 0 0 1-108.692063 108.329756z m-20.047647-434.768251a72.461375 72.461375 0 0 0-72.461375 72.461375v254.339427a72.461375 72.461375 0 0 0 72.461375 72.461375h20.047647a72.461375 72.461375 0 0 0 72.461375-72.461375V661.330817a72.461375 72.461375 0 0 0-72.461375-72.461375zM828.406218 1024h-20.047647a108.692063 108.692063 0 0 1-108.692063-108.692063V661.330817a108.692063 108.692063 0 0 1 108.692063-108.692062h20.047647a108.692063 108.692063 0 0 1 108.692062 108.692062v254.339427a108.692063 108.692063 0 0 1-108.692062 108.329756z m-20.047647-434.768251a72.461375 72.461375 0 0 0-72.461376 72.461375v254.339427a72.461375 72.461375 0 0 0 72.461376 72.461375h20.047647a72.461375 72.461375 0 0 0 72.461375-72.461375V661.330817a72.461375 72.461375 0 0 0-72.461375-72.461375z" fill="#C775AC" p-id="3547"></path><path d="M574.18756 892.96568a18.477651 18.477651 0 0 1-15.699965-10.023824l-68.475999-136.951999-26.68994 50.964501a18.236113 18.236113 0 0 1-16.062272 9.661517h-51.447576a18.115344 18.115344 0 0 1 0-36.230688h40.457601l38.162991-72.461375a18.356882 18.356882 0 0 1 16.183041-9.661517 18.477651 18.477651 0 0 1 16.062271 10.023824l69.079844 138.280457 24.153792-42.510673a17.873806 17.873806 0 0 1 14.975351-9.178441l51.326807-2.053072a18.127421 18.127421 0 1 1 1.449228 36.230687l-41.302984 1.690766-36.230688 63.162165a18.236113 18.236113 0 0 1-15.941502 9.057672z" fill="#60B3E4" p-id="3548"></path><path d="M83.140974 782.82439a505.055785 505.055785 0 1 1 850.817314-10.869207l-30.796085-19.081495a468.825097 468.825097 0 1 0-789.587451 9.661517z" fill="#C775AC" p-id="3549"></path><path d="M251.492902 261.827102a17.632268 17.632268 0 0 1-12.076895-4.226913 18.115344 18.115344 0 0 1-2.41538-25.361482c1.690765-2.053072 169.076542-198.061092 451.434368-62.437551a18.115344 18.115344 0 0 1-15.579196 32.728388c-256.754806-123.063569-401.919094 45.529897-407.957542 52.776034a17.753037 17.753037 0 0 1-13.405355 6.521524zM766.934818 267.986319a17.994575 17.994575 0 0 1-14.854582-7.729213 360.253804 360.253804 0 0 0-35.506074-37.679915 18.199882 18.199882 0 0 1 24.999174-26.448402 401.798325 401.798325 0 0 1 40.457602 43.356056 18.115344 18.115344 0 0 1-14.854582 28.501474z" fill="#60B3E4" p-id="3550"></path></svg>