<?xml version="1.0" standalone="no"?><!DOCTYPE svg PUBLIC "-//W3C//DTD SVG 1.1//EN" "http://www.w3.org/Graphics/SVG/1.1/DTD/svg11.dtd"><svg t="1600670124220" class="icon" viewBox="0 0 1024 1024" version="1.1" xmlns="http://www.w3.org/2000/svg" p-id="22433" xmlns:xlink="http://www.w3.org/1999/xlink" width="200" height="200"><defs><style type="text/css"></style></defs><path d="M85.333333 212.195556a113.777778 113.777778 0 0 1 86.471111-110.478223L513.706667 17.408a56.888889 56.888889 0 0 1 70.542222 55.182222V937.528889a56.888889 56.888889 0 0 1-67.640889 55.864889l-338.887111-64.853334A113.777778 113.777778 0 0 1 85.333333 816.696889V212.195556z m308.508445 359.310222c44.714667 0 80.952889-48.014222 80.952889-107.235556 0-59.164444-36.238222-107.178667-80.952889-107.178666S312.888889 405.048889 312.888889 464.213333c0 59.221333 36.238222 107.235556 80.952889 107.235556z" fill="#FF5066" p-id="22434"></path><path d="M689.208889 131.299556h115.712a113.777778 113.777778 0 0 1 113.777778 113.777777v592.099556a113.777778 113.777778 0 0 1-113.777778 113.777778h-115.712V131.299556z" fill="#FFB9C0" p-id="22435"></path></svg>