<?xml version="1.0" standalone="no"?><!DOCTYPE svg PUBLIC "-//W3C//DTD SVG 1.1//EN" "http://www.w3.org/Graphics/SVG/1.1/DTD/svg11.dtd"><svg t="1600670402601" class="icon" viewBox="0 0 1024 1024" version="1.1" xmlns="http://www.w3.org/2000/svg" p-id="25023" xmlns:xlink="http://www.w3.org/1999/xlink" width="200" height="200"><defs><style type="text/css"></style></defs><path d="M704.6 259.1v178.4c0 107.2-87.7 194.9-194.9 194.9s-194.9-87.7-194.9-194.9v41.7c0 107.7 88.1 195.7 195.7 195.7 107.7 0 195.7-88.1 195.7-195.7V260.6c0-70.7-38-133-94.6-167.4 55.7 34.5 93 96 93 165.9z" fill="#FFB600" p-id="25024"></path><path d="M509.7 632.4c107.2 0 194.9-87.7 194.9-194.9V259.1c0-69.9-37.3-131.4-92.9-165.9-29.7-18.4-64.7-29-102-29-107.2 0-194.9 87.7-194.9 194.9v178.4c0.1 107.2 87.7 194.9 194.9 194.9z" fill="#FFE576" p-id="25025"></path><path d="M206.5 481.4c-0.6 1.9-1 3.8-1 5.9 0 184.1 109.6 300.8 287.5 308.5l-0.1-30.2c-168.2-7.5-275.2-114.2-286.4-284.2zM531.2 765.6l0.1 30.2c180.2-7.6 287.1-121.7 287.1-308.5 0-2-0.3-4-0.9-5.8-10.9 172.4-115.8 276.9-286.3 284.1zM708.3 909.6c0.4 10.9-8.3 19.8-19.1 19.8H338.6c-10.4 0-19.3-8.1-19.6-18.5-0.4-10.9 8.3-19.8 19.1-19.8-10.6 0-19.2 7.8-19.2 17.5s-2.1 50.3 19.2 50.4h351.1c23.4 0 19.2-40.8 19.2-50.4s-8.6-17.5-19.2-17.5h-0.5c10.4 0 19.3 8.1 19.6 18.5z" fill="#FFB600" p-id="25026"></path><path d="M817.4 481.5c0.6-9.8 0.9-19.8 0.9-30 0-11.2-9.6-20.1-20.9-19.1-10 0.9-17.3 9.6-17.4 19.6-0.2 175.3-97.9 275.8-268.1 275.8-167.9 0-268.1-103.3-268.1-276.3 0-10.8-8.9-19.5-19.7-19.1-10.4 0.3-18.6 9.2-18.6 19.6 0 10 0.4 19.9 1 29.5 11.1 170.1 118.2 276.8 286.4 284.2l0.1 30.2 0.4 95.3H338.1c-10.8 0-19.5 8.9-19.1 19.8 0.3 10.4 9.2 18.5 19.6 18.5h350.6c10.8 0 19.5-8.9 19.1-19.8-0.3-10.4-9.2-18.5-19.6-18.5h-157l-0.4-95.3-0.1-30.2c170.5-7.3 275.4-111.8 286.2-284.2z" fill="#FFE576" p-id="25027"></path></svg>