<?xml version="1.0" standalone="no"?><!DOCTYPE svg PUBLIC "-//W3C//DTD SVG 1.1//EN" "http://www.w3.org/Graphics/SVG/1.1/DTD/svg11.dtd"><svg t="1600670650578" class="icon" viewBox="0 0 1024 1024" version="1.1" xmlns="http://www.w3.org/2000/svg" p-id="28828" xmlns:xlink="http://www.w3.org/1999/xlink" width="200" height="200"><defs><style type="text/css"></style></defs><path d="M512 512m-496 0a496 496 0 1 0 992 0 496 496 0 1 0-992 0Z" fill="#008CEE" p-id="28829"></path><path d="M512 1024C230.4 1024 0 793.6 0 512S230.4 0 512 0s512 230.4 512 512-230.4 512-512 512z m0-992C248 32 32 248 32 512s216 480 480 480 480-216 480-480S776 32 512 32z" fill="#008CEE" p-id="28830"></path><path d="M512 592c-9.6 0-16-6.4-16-16V144c0-9.6 6.4-16 16-16s16 6.4 16 16v432c0 9.6-6.4 16-16 16z" fill="#FFFFFF" p-id="28831"></path><path d="M512 592H208c-9.6 0-16-6.4-16-16s6.4-16 16-16h304c9.6 0 16 6.4 16 16s-6.4 16-16 16z" fill="#FFFFFF" p-id="28832"></path></svg>