<?xml version="1.0" standalone="no"?><!DOCTYPE svg PUBLIC "-//W3C//DTD SVG 1.1//EN" "http://www.w3.org/Graphics/SVG/1.1/DTD/svg11.dtd"><svg t="1600739574757" class="icon" viewBox="0 0 1024 1024" version="1.1" xmlns="http://www.w3.org/2000/svg" p-id="3785" xmlns:xlink="http://www.w3.org/1999/xlink" width="200" height="200"><defs><style type="text/css"></style></defs><path d="M354.461538 275.692308v236.307692a157.538462 157.538462 0 0 0 315.076924 0V275.692308z" fill="#CDD5D7" p-id="3786"></path><path d="M512 679.384615a187.470769 187.470769 0 0 0 187.076923-187.076923V236.307692a187.076923 187.076923 0 0 0-374.153846 0v256A187.470769 187.470769 0 0 0 512 679.384615zM384 236.307692a128 128 0 0 1 256 0v256a128 128 0 0 1-256 0z" fill="#737F80" p-id="3787"></path><path d="M817.230769 492.307692a29.538462 29.538462 0 0 0-59.076923 0 246.153846 246.153846 0 0 1-492.307692 0 29.538462 29.538462 0 0 0-59.076923 0 305.624615 305.624615 0 0 0 275.692307 303.655385v90.190769H354.461538A29.538462 29.538462 0 0 0 354.461538 945.230769h315.076924a29.538462 29.538462 0 0 0 0-59.076923h-128v-90.190769a305.624615 305.624615 0 0 0 275.692307-303.655385z" fill="#737F80" p-id="3788"></path></svg>