<?xml version="1.0" standalone="no"?><!DOCTYPE svg PUBLIC "-//W3C//DTD SVG 1.1//EN" "http://www.w3.org/Graphics/SVG/1.1/DTD/svg11.dtd"><svg t="1600739653595" class="icon" viewBox="0 0 1027 1024" version="1.1" xmlns="http://www.w3.org/2000/svg" p-id="4565" xmlns:xlink="http://www.w3.org/1999/xlink" width="200.5859375" height="200"><defs><style type="text/css"></style></defs><path d="M920.122 75.83600001H99.216c-50.328 0-91.272 40.945-91.272 91.27199998v692.00900001c0 50.328 40.944 91.271 91.272 91.27099999h820.906c50.327 0 91.27-40.944 91.27-91.27099999v-692.01c0.002-50.326-40.943-91.27-91.27-91.27zM99.216 142.351h820.906c13.651 0 24.75599999 11.106 24.756 24.75700001v492.71999998c-46.915-72.336-110.607-166.954-145.38-203.55599999-29.552-31.109-59.966-37.638-80.275-37.638h-0.001c-44.897 0-77.274 30.226-83.744 36.759-13.083 12.219-179.912 168.045-200.163 187.433-10.62000001-11.966-49.05-54.92-86.132-92.002-23.835-23.83600001-54.855-31.725-87.34700001-22.216-21.23600001 6.217-35.982 17.84400001-38.72099999 20.111l-0.26 0.215L74.459 676.90000001V167.10800001c0-13.651 11.106-24.757 24.757-24.75700001z m820.906 741.523H99.216c-13.651 0-24.757-11.107-24.757-24.757v-92.363L265.49 599.998c2.296-1.744 8.968-6.035 16.26600001-7.892 8.4-2.134 14.12-0.523 20.39299999 5.75 39.079 39.08 81.206 86.615 85.658 91.65200001 4.514 5.417 19.35 20.858 42.868 22.49399999 12.374 0.864 31.051-1.95600001 49.75299999-20.277 9.159-8.97200001 148.20400001-138.926 201.00900001-188.242l0.531-0.438 0.8-0.874c4.882-4.882 20.48399999-17.022 36.464-17.022l0.299 0.001c10.633 0.102 21.017 5.641 31.746 16.93399999 39.418 41.494 146.583 195.563 193.602 267.56700001v89.466c-0.001 13.65-11.107 24.757-24.758 24.757z" p-id="4566"></path><path d="M275.135 442.433c52.973 0 96.06799999-43.097 96.068-96.068s-43.095-96.06799999-96.068-96.068-96.06799999 43.095-96.068 96.068 43.096 96.06799999 96.068 96.068z m0-125.623c16.295 0 29.553 13.258 29.553 29.55400001s-13.258 29.553-29.553 29.55299999-29.553-13.258-29.553-29.55299999c0-16.296 13.258-29.554 29.553-29.55400001z" p-id="4567"></path></svg>