<?xml version="1.0" standalone="no"?><!DOCTYPE svg PUBLIC "-//W3C//DTD SVG 1.1//EN" "http://www.w3.org/Graphics/SVG/1.1/DTD/svg11.dtd"><svg t="1600739764569" class="icon" viewBox="0 0 1024 1024" version="1.1" xmlns="http://www.w3.org/2000/svg" p-id="5333" xmlns:xlink="http://www.w3.org/1999/xlink" width="200" height="200"><defs><style type="text/css"></style></defs><path d="M897.024 831.658667H128V320H897.024v511.658667zM367.530667 192h290.944l20.714666 64h-332.373333l20.736-64z m529.493333 64H746.453333L719.36 172.288A64 64 0 0 0 658.474667 128H367.552a64 64 0 0 0-60.885333 44.288L279.552 256H128a64 64 0 0 0-64 64v511.658667a64 64 0 0 0 64 64h769.024a64 64 0 0 0 64-64V320a64 64 0 0 0-64-64z" fill="#17233D" fill-opacity=".75" p-id="5334"></path><path d="M512.512 383.829333a192 192 0 1 0 0 384 192 192 0 0 0 0-384m0 64a127.146667 127.146667 0 0 1 90.517333 37.482667 127.146667 127.146667 0 0 1 37.482667 90.517333 127.146667 127.146667 0 0 1-37.482667 90.496 127.146667 127.146667 0 0 1-90.517333 37.504 127.146667 127.146667 0 0 1-90.517333-37.504 127.146667 127.146667 0 0 1-37.482667-90.496 127.146667 127.146667 0 0 1 37.482667-90.517333 127.146667 127.146667 0 0 1 90.517333-37.482667" fill="#AEB2BB" p-id="5335"></path></svg>