<?xml version="1.0" standalone="no"?><!DOCTYPE svg PUBLIC "-//W3C//DTD SVG 1.1//EN" "http://www.w3.org/Graphics/SVG/1.1/DTD/svg11.dtd"><svg t="1600927705287" class="icon" viewBox="0 0 1024 1024" version="1.1" xmlns="http://www.w3.org/2000/svg" p-id="5157" xmlns:xlink="http://www.w3.org/1999/xlink" width="200" height="200"><defs><style type="text/css"></style></defs><path d="M512 45.96622222c-256.92539259 0-466.03377778 209.10838518-466.03377778 466.03377778s209.10838518 466.03377778 466.03377778 466.03377778 466.03377778-209.10838518 466.03377778-466.03377778-209.10838518-466.03377778-466.03377778-466.03377778z m0 870.6578963c-223.06512592 0-404.62411852-181.55899259-404.62411852-404.62411852 0-223.06512592 181.55899259-404.62411852 404.62411852-404.62411852S916.62411852 288.93487408 916.62411852 512c0 223.06512592-181.55899259 404.62411852-404.62411852 404.62411852z" fill="#cdcdcd" p-id="5158"></path><path d="M717.10340741 241.36059259L439.30358518 425.8322963c-5.33997037 3.51952592-9.8304 8.13131852-13.47128888 13.47128888L241.36059259 717.10340741c-12.62174815 18.93262222-10.19448889 43.44794075 5.94678519 59.58921481 9.22358518 9.22358518 21.23851852 13.95674075 33.37481481 13.95674075 8.98085925 0 18.08308148-2.66998518 26.2144-8.00995556l277.79982223-184.47170371c5.33997037-3.51952592 9.8304-8.13131852 13.47128888-13.47128888L782.63940741 306.89659259c12.62174815-18.93262222 10.19448889-43.44794075-5.94678519-59.58921481-16.14127408-16.14127408-40.65659259-18.56853333-59.58921481-5.94678519zM548.53025185 548.40888889l-217.2397037 144.30056296 144.30056296-217.2397037 217.11834074-144.1792L548.53025185 548.40888889z" fill="#cdcdcd" p-id="5159"></path><path d="M483.60106667 523.77220741c0.72817778 1.82044445 1.69908148 3.64088889 2.79134815 5.33997037 1.09226667 1.69908148 2.42725925 3.2768 3.76225185 4.61179259 1.45635555 1.45635555 3.03407408 2.66998518 4.61179258 3.76225185 1.69908148 1.09226667 3.39816297 2.06317037 5.33997038 2.79134815 1.82044445 0.72817778 3.76225185 1.33499259 5.82542222 1.69908148 1.94180741 0.48545185 4.00497778 0.60681482 6.06814815 0.60681482 1.94180741 0 4.00497778-0.24272592 5.94678518-0.60681482 1.94180741-0.36408889 3.88361482-0.9709037 5.82542223-1.69908148 1.82044445-0.84954075 3.64088889-1.69908148 5.33997037-2.79134815 1.69908148-1.09226667 3.2768-2.42725925 4.61179259-3.76225185 1.45635555-1.45635555 2.66998518-3.03407408 3.76225185-4.61179259 1.09226667-1.69908148 2.06317037-3.51952592 2.79134815-5.33997037 0.84954075-1.82044445 1.33499259-3.76225185 1.82044445-5.70405926 0.36408889-1.94180741 0.60681482-4.00497778 0.60681481-6.06814815 0-2.06317037-0.24272592-4.00497778-0.60681481-6.06814815-0.48545185-1.94180741-0.9709037-3.88361482-1.82044445-5.70405926-0.72817778-1.82044445-1.69908148-3.64088889-2.79134815-5.33997037-1.09226667-1.69908148-2.42725925-3.2768-3.76225185-4.61179259-1.45635555-1.45635555-2.91271111-2.66998518-4.61179259-3.76225185-1.69908148-1.09226667-3.39816297-2.06317037-5.33997037-2.79134815-1.82044445-0.72817778-3.76225185-1.33499259-5.82542223-1.69908148-3.88361482-0.84954075-8.00995555-0.84954075-12.01493333 0-1.94180741 0.36408889-3.88361482 0.9709037-5.82542222 1.69908148-1.82044445 0.84954075-3.64088889 1.69908148-5.33997038 2.79134815-1.69908148 1.09226667-3.2768 2.42725925-4.61179258 3.76225185-1.45635555 1.45635555-2.66998518 3.03407408-3.76225185 4.61179259-1.09226667 1.69908148-2.06317037 3.51952592-2.79134815 5.33997037-0.84954075 1.82044445-1.33499259 3.76225185-1.82044445 5.70405926-0.36408889 2.06317037-0.60681482 4.00497778-0.60681481 6.06814815 0 2.06317037 0.24272592 4.00497778 0.60681481 6.06814815 0.48545185 1.94180741 1.09226667 3.76225185 1.82044445 5.70405926z" fill="#cdcdcd" p-id="5160"></path></svg>